<svg width="200" height="200" viewBox="0 0 200 200" xmlns="http://www.w3.org/2000/svg">
  <style>
    @keyframes headTurn {
      0%, 100% { transform: rotate(0deg); }
      50% { transform: rotate(-15deg); }
    }
    @keyframes growl {
      0%, 100% { transform: scale(1); }
      50% { transform: scale(1.1); }
    }
    .head { transform-origin: 50% 50%; animation: headTurn 4s ease-in-out infinite; }
    .spots { animation: growl 2s ease-in-out infinite; }
  </style>
  
  <g class="leopard">
    <!-- Body -->
    <path d="M60 100 C 60 80, 80 60, 100 60 C 120 60, 140 80, 140 100 C 140 120, 120 140, 100 140 C 80 140, 60 120, 60 100" 
          fill="#818CF8" />
    
    <!-- Head -->
    <g class="head">
      <circle cx="100" cy="70" r="25" fill="#818CF8" />
      
      <!-- Spots -->
      <g class="spots">
        <circle cx="90" cy="60" r="3" fill="#1E293B" />
        <circle cx="110" cy="65" r="2" fill="#1E293B" />
        <circle cx="95" cy="75" r="2" fill="#1E293B" />
        <circle cx="105" cy="80" r="3" fill="#1E293B" />
      </g>
      
      <!-- Eyes -->
      <circle cx="90" cy="65" r="4" fill="#1E293B" />
      <circle cx="110" cy="65" r="4" fill="#1E293B" />
      
      <!-- Nose -->
      <path d="M100 75 L 95 80 L 105 80 Z" fill="#1E293B" />
      
      <!-- Whiskers -->
      <line x1="85" y1="80" x2="70" y2="75" stroke="#1E293B" stroke-width="1" />
      <line x1="85" y1="82" x2="70" y2="82" stroke="#1E293B" stroke-width="1" />
      <line x1="115" y1="80" x2="130" y2="75" stroke="#1E293B" stroke-width="1" />
      <line x1="115" y1="82" x2="130" y2="82" stroke="#1E293B" stroke-width="1" />
    </g>
  </g>
</svg> 