<svg width="200" height="200" viewBox="0 0 200 200" xmlns="http://www.w3.org/2000/svg">
  <style>
    @keyframes hornShimmer {
      0%, 100% { filter: drop-shadow(0 0 2px #F59E0B); }
      50% { filter: drop-shadow(0 0 8px #F59E0B); }
    }
    @keyframes particle {
      0% { opacity: 0; transform: translateY(0); }
      50% { opacity: 1; }
      100% { opacity: 0; transform: translateY(-20px); }
    }
    .horn { animation: hornShimmer 3s ease-in-out infinite; }
    .particle { animation: particle 2s ease-in-out infinite; }
  </style>
  
  <g class="oryx">
    <!-- Body -->
    <path d="M80 100 C 80 80, 100 60, 120 60 C 140 60, 160 80, 160 100 C 160 120, 140 140, 120 140 C 100 140, 80 120, 80 100" 
          fill="#F59E0B" />
    
    <!-- Head -->
    <circle cx="100" cy="70" r="20" fill="#F59E0B" />
    
    <!-- Horns -->
    <g class="horn">
      <path d="M90 50 L 80 20 L 100 50" stroke="#F59E0B" stroke-width="4" fill="none" />
      <path d="M110 50 L 120 20 L 100 50" stroke="#F59E0B" stroke-width="4" fill="none" />
      
      <!-- Particles -->
      <g class="particle">
        <circle cx="80" cy="20" r="2" fill="#F59E0B" />
        <circle cx="120" cy="20" r="2" fill="#F59E0B" />
        <circle cx="85" cy="25" r="1.5" fill="#F59E0B" />
        <circle cx="115" cy="25" r="1.5" fill="#F59E0B" />
      </g>
    </g>
    
    <!-- Eyes -->
    <circle cx="95" cy="65" r="3" fill="#1E293B" />
    <circle cx="105" cy="65" r="3" fill="#1E293B" />
    
    <!-- Nose -->
    <path d="M100 75 L 95 80 L 105 80 Z" fill="#1E293B" />
  </g>
</svg> 