<svg width="200" height="200" viewBox="0 0 200 200" xmlns="http://www.w3.org/2000/svg">
  <style>
    @keyframes howl {
      0%, 100% { transform: translateY(0); }
      50% { transform: translateY(-10px); }
    }
    @keyframes eyeGlow {
      0%, 100% { filter: drop-shadow(0 0 2px #EF4444); }
      50% { filter: drop-shadow(0 0 8px #EF4444); }
    }
    .wolf { animation: howl 4s ease-in-out infinite; }
    .eyes { animation: eyeGlow 2s ease-in-out infinite; }
  </style>
  
  <g class="wolf">
    <!-- Body -->
    <path d="M70 100 C 70 80, 90 60, 110 60 C 130 60, 150 80, 150 100 C 150 120, 130 140, 110 140 C 90 140, 70 120, 70 100" 
          fill="#EF4444" />
    
    <!-- Head -->
    <circle cx="100" cy="70" r="25" fill="#EF4444" />
    
    <!-- Snout -->
    <path d="M90 80 C 90 90, 110 90, 110 80 C 110 70, 90 70, 90 80" fill="#EF4444" />
    
    <!-- Eyes -->
    <g class="eyes">
      <circle cx="90" cy="65" r="4" fill="#1E293B" />
      <circle cx="110" cy="65" r="4" fill="#1E293B" />
    </g>
    
    <!-- Ears -->
    <path d="M85 50 L 75 30 L 95 50" fill="#EF4444" />
    <path d="M115 50 L 125 30 L 105 50" fill="#EF4444" />
    
    <!-- Howl Effect -->
    <path d="M100 40 C 90 30, 80 20, 70 10 C 60 0, 50 10, 60 20 C 70 30, 80 40, 100 40" 
          fill="none" stroke="#EF4444" stroke-width="2" opacity="0.5" />
  </g>
</svg> 